# xmcd
#
# Track frame offsets:
#	182
#	11217
#	25845
#	40637
#	53947
#	68395
#	80550
#	92660
#	107147
#	120422
#
# Disc length: 1824 seconds
#
# Revision: 0
# Processed by: cddbd v1.5.2PL0 Copyright (c) Steve Scherf et al.
# Submitted via: EasyCDDAExtractor 12.0.7.1
#
DISCID=73071e0a
DTITLE=Dennis Wheeler - Give Me A Honky Tonk Night (Any Old Day)
DYEAR=1989
DGENRE=Country
TTITLE0=Give Me A Honky Tonk Night (Any Old Day)
TTITLE1=Goin' Out Of My Mind
TTITLE2=Don't Take Your Problems To The Bedroom
TTITLE3=Jim Beam Me Up Scotty
TTITLE4=(I'll Never Understand) Women
TTITLE5=Pushin' Forty
TTITLE6=If I Didn't Live Here I Go Home
TTITLE7=Honky Tonk Heartache
TTITLE8=I Wouldn't Go Through This Again For Love Nor Money
TTITLE9=Not Knowing Where You've Gone
EXTD=
EXTT0=
EXTT1=
EXTT2=
EXTT3=
EXTT4=
EXTT5=
EXTT6=
EXTT7=
EXTT8=
EXTT9=
PLAYORDER=
